<svg width="20" height="14" viewBox="0 0 20 14" fill="none" xmlns="http://www.w3.org/2000/svg">
<path d="M3.07205 8C3.7075 8.41014 4.15348 8.74348 4.41 9C5.25368 9.84368 6.35272 10.9413 7.70711 12.2929C8.09763 12.6834 8.09763 13.3166 7.70711 13.7071C7.31658 14.0976 6.68342 14.0976 6.29289 13.7071L0.292893 7.70711C-0.0976311 7.31658 -0.0976311 6.68342 0.292893 6.29289L6.29289 0.292893C6.68342 -0.0976311 7.31658 -0.0976311 7.70711 0.292893C8.09763 0.683418 8.09763 1.31658 7.70711 1.70711C6.35264 3.05876 5.2536 4.1564 4.41 5C4.15303 5.25697 3.70719 5.5903 3.07247 6H19C19.5523 6 20 6.44772 20 7C20 7.55228 19.5523 8 19 8H3.07205Z" fill="#1A1A1A"/>
</svg>
