<svg width="16" height="16" viewBox="0 0 16 16" fill="none" xmlns="http://www.w3.org/2000/svg">
<path fill-rule="evenodd" clip-rule="evenodd" d="M15.7006 1.80769C15.8949 1.60652 16.0024 1.33707 16 1.0574C15.9975 0.777721 15.8853 0.510188 15.6876 0.31242C15.4898 0.114651 15.2223 0.00247064 14.9426 4.03226e-05C14.6629 -0.00238999 14.3935 0.105124 14.1923 0.299426L8.01311 6.47863L1.83391 0.299426C1.63273 0.105124 1.36329 -0.00238999 1.08361 4.03226e-05C0.803936 0.00247064 0.536403 0.114651 0.338634 0.31242C0.140866 0.510188 0.0286852 0.777721 0.0262549 1.0574C0.0238246 1.33707 0.131339 1.60652 0.325641 1.80769L6.50484 7.98689L0.325641 14.1661C0.223763 14.2645 0.142502 14.3822 0.0865993 14.5123C0.0306964 14.6425 0.00127101 14.7824 4.02742e-05 14.9241C-0.00119046 15.0657 0.0257978 15.2062 0.0794307 15.3372C0.133064 15.4683 0.212267 15.5874 0.312419 15.6876C0.412571 15.7877 0.531667 15.8669 0.662756 15.9206C0.793846 15.9742 0.934304 16.0012 1.07594 16C1.21757 15.9987 1.35753 15.9693 1.48767 15.9134C1.61781 15.8575 1.73551 15.7762 1.83391 15.6744L8.01311 9.49516L14.1923 15.6744C14.3935 15.8687 14.6629 15.9762 14.9426 15.9737C15.2223 15.9713 15.4898 15.8591 15.6876 15.6614C15.8853 15.4636 15.9975 15.1961 16 14.9164C16.0024 14.6367 15.8949 14.3673 15.7006 14.1661L9.52137 7.98689L15.7006 1.80769Z" fill="#1A1A1A"/>
</svg>
