<svg width="16" height="16" viewBox="0 0 16 16" fill="none" xmlns="http://www.w3.org/2000/svg">
<path d="M8.00039 0C7.71679 0 7.44032 0.0767943 7.19952 0.223239C6.93732 0.382186 6.73042 0.612568 6.60021 0.891171L4.96636 4.3737L1.31519 4.93269C0.73906 5.0202 0.266387 5.41846 0.0808849 5.9721C-0.104617 6.52573 0.0345094 7.12758 0.441187 7.54549L3.12918 10.3047L2.49419 14.198C2.42106 14.6481 2.5477 15.1035 2.84201 15.4499C3.1381 15.7982 3.56797 15.9982 4.0228 15.9982C4.28322 15.9982 4.54185 15.9303 4.77194 15.8035L8.00039 14.0176L11.2288 15.8053C11.4589 15.9321 11.7176 16 11.978 16C12.4328 16 12.8627 15.8 13.1588 15.4517C13.4531 15.1053 13.5797 14.6498 13.5066 14.1998L12.8716 10.3065L15.5596 7.54727C15.9663 7.12937 16.1036 6.52751 15.9199 5.97388C15.7344 5.42025 15.2617 5.02199 14.6856 4.93448L11.0344 4.3737L9.40058 0.891171C9.27037 0.612568 9.06346 0.382186 8.80126 0.223239C8.56046 0.0767943 8.284 0 8.00039 0Z" fill="#FFCA1C"/>
</svg>
